{"title":"Dawn of the Planet of the Apes (2014) TS [RUS]","uid":10629481,"size":761978282,"categoryP":"video","categoryS":"movies","magnet":"?xt=urn:btih:dde61603b119c3f5e26feeef6d7f1f92a24b3975&amp;dn=Dawn+of+the+Planet+of+the+Apes+%282014%29+TS+%5BRUS%5D&amp;tr=udp%3A%2F%2Ftracker.openbittorrent.com%3A80&amp;tr=udp%3A%2F%2Fopen.demonii.com%3A1337&amp;tr=udp%3A%2F%2Ftracker.coppersurfer.tk%3A6969&amp;tr=udp%3A%2F%2Fexodus.desync.com%3A6969","seeders":1,"leechers":0,"uploader":"yfjfrj","files":1,"time":1406297349,"description":"In the wake of a disaster that changed the world, the growing and genetically evolving apes find themselves at a critical point with the human race.\n\nMI:\nGeneral\nComplete name                            : C:UsersIvanDesktopDawn.of.the.Planet.of.the.Apes.2014.D.TS.726MB.avi\nFormat                                   : AVI\nFormat/Info                              : Audio Video Interleave\nFile size                                : 727 MiB\nDuration                                 : 2h 1mn\nOverall bit rate                         : 837 Kbps\nWriting application                      : VirtualDubMod 1.5.10.3 | www.virtualdub-fr.org || (build 2550/release)\nWriting library                          : VirtualDub build 35491/release\n\nVideo\nID                                       : 0\nFormat                                   : MPEG-4 Visual\nFormat profile                           : Advanced Simple@L5\nFormat settings, BVOP                    : 2\nFormat settings, QPel                    : No\nFormat settings, GMC                     : No warppoints\nFormat settings, Matrix                  : Default (H.263)\nMuxing mode                              : Packed bitstream\nCodec ID                                 : XVID\nCodec ID/Hint                            : XviD\nDuration                                 : 2h 1mn\nBit rate                                 : 700 Kbps\nWidth                                    : 640 pixels\nHeight                                   : 272 pixels\nDisplay aspect ratio                     : 2.35:1\nFrame rate                               : 24.000 fps\nColor space                              : YUV\nChroma subsampling                       : 4:2:0\nBit depth                                : 8 bits\nScan type                                : Progressive\nCompression mode                         : Lossy\nBits/(Pixel*Frame)                       : 0.167\nStream size                              : 608 MiB (84%)\nWriting library                          : XviD 64\n\nAudio\nID                                       : 1\nFormat                                   : MPEG Audio\nFormat version                           : Version 1\nFormat profile                           : Layer 3\nMode                                     : Joint stereo\nMode extension                           : MS Stereo\nCodec ID                                 : 55\nCodec ID/Hint                            : MP3\nDuration                                 : 2h 1mn\nBit rate mode                            : Constant\nBit rate                                 : 128 Kbps\nChannel(s)                               : 2 channels\nSampling rate                            : 44.1 KHz\nCompression mode                         : Lossy\nStream size                              : 111 MiB (15%)\nAlignment                                : Split accross interleaves\nInterleave, duration                     : 42 ms (1.00 video frame)\nInterleave, preload duration             : 501 ms\n\nScreens: &lt;a href=&quot;\nhttp://i4.imageban.ru/out/2014/07/25/6f4ed91b7540bf0d70afd40a4870ea69.png&quot; rel=&quot;nofollow&quot; target=&quot;_NEW&quot;&gt;\nhttp://i4.imageban.ru/out/2014/07/25/6f4ed91b7540bf0d70afd40a4870ea69.png&lt;/a&gt; &lt;a href=&quot;\nhttp://i5.imageban.ru/out/2014/07/25/33706d0fba544dc3ea54e0a609064f2b.png&quot; rel=&quot;nofollow&quot; target=&quot;_NEW&quot;&gt;\nhttp://i5.imageban.ru/out/2014/07/25/33706d0fba544dc3ea54e0a609064f2b.png&lt;/a&gt; &lt;a href=&quot;\nhttp://i6.imageban.ru/out/2014/07/25/e95905c5d65fbe3a0d5891f334bbc451.png&quot; rel=&quot;nofollow&quot; target=&quot;_NEW&quot;&gt;\nhttp://i6.imageban.ru/out/2014/07/25/e95905c5d65fbe3a0d5891f334bbc451.png&lt;/a&gt; &lt;a href=&quot;\nhttp://i5.imageban.ru/out/2014/07/25/0a869434064a01270679629e06c57961.png&quot; rel=&quot;nofollow&quot; target=&quot;_NEW&quot;&gt;\nhttp://i5.imageban.ru/out/2014/07/25/0a869434064a01270679629e06c57961.png&lt;/a&gt;","torrent":{"xt":"urn:btih:dde61603b119c3f5e26feeef6d7f1f92a24b3975","amp;dn":"Dawn+of+the+Planet+of+the+Apes+%282014%29+TS+%5BRUS%5D","amp;tr":["udp%3A%2F%2Ftracker.openbittorrent.com%3A80","udp%3A%2F%2Fopen.demonii.com%3A1337","udp%3A%2F%2Ftracker.coppersurfer.tk%3A6969","udp%3A%2F%2Fexodus.desync.com%3A6969"],"infoHash":"dde61603b119c3f5e26feeef6d7f1f92a24b3975","infoHashBuffer":{"type":"Buffer","data":[221,230,22,3,177,25,195,245,226,111,238,239,109,127,31,146,162,75,57,117]},"announce":[],"urlList":[]}}